<svg height="128" viewBox="0 0 128 128" width="80" fill="#fff" xmlns="http://www.w3.org/2000/svg"><path d="M118.95 92.012c-3.778-3.777-10.1-7.074-20.066-12.059-5.024-2.512-13.386-6.691-15.413-8.605 8.489-10.434 13.416-22.219 13.416-32.535 0-7 0-15.711-3.918-23.48C89.437 8.336 81.544 0 64.002 0 46.456 0 38.563 8.336 35.035 15.332c-3.923 7.77-3.923 16.48-3.923 23.48 0 10.32 4.923 22.102 13.417 32.535-2.032 1.918-10.393 6.098-15.417 8.605-9.963 4.984-16.285 8.281-20.066 12.059-8.369 8.375-9.002 22.426-9.045 25.16a10.672 10.672 0 0 0 3.067 7.648c2 2.031 4.743 3.18 7.595 3.18h106.669c2.86 0 5.596-1.148 7.6-3.18a10.693 10.693 0 0 0 3.067-7.652c-.043-2.729-.681-16.78-9.049-25.155zm.285 27.191a2.666 2.666 0 0 1-1.903.797H10.663a2.666 2.666 0 0 1-1.895-.797 2.701 2.701 0 0 1-.77-1.91c.023-1.34.391-13.305 6.705-19.621 2.915-2.914 9.017-6.074 17.988-10.563 9.576-4.785 14.886-7.637 17.332-9.949l5.399-5.105-4.688-5.758c-7.384-9.07-11.623-19.09-11.623-27.484 0-6.473 0-13.805 3.063-19.875C45.842 11.68 53.179 8 64.002 8c10.814 0 18.159 3.68 21.824 10.934 3.063 6.074 3.063 13.406 3.063 19.879 0 8.391-4.235 18.41-11.628 27.484l-4.688 5.762 5.4 5.102c2.445 2.309 7.751 5.16 17.331 9.949 8.971 4.484 15.073 7.645 17.988 10.563 5.138 5.137 6.634 14.75 6.704 19.621a2.667 2.667 0 0 1-.761 1.909z"/></svg>